#N canvas 655 225 882 718 10;
#X obj 113 63 midirealtimein;
#X obj 119 133 select 248 250 251 252;
#X obj 339 421 bng 15 250 50 0 empty empty empty 17 7 0 10 -262144
-1 -1;
#X obj 235 292 f;
#X obj 235 329 moses 95;
#X obj 332 284 + 1;
#X text 293 223 Trigerred when clock start or stop;
#X msg 377 305 0;
#X obj 318 369 select 0 24 48 72;
#X obj 309 174 f 0;
#X obj 252 174 f 1;
#X obj 177 224 spigot 0;
#X text 89 330 Counter : from 0 to 95;
#X text 405 305 when the counter reaches 95 \, it reset itself to 0
;
#X text 364 282 counter increment;
#X obj 300 580 noteout;
#X obj 249 224 f 0;
#X msg 300 456 60 10 1;
#X text 275 58 Outputs values : 248 - midi clock 250 - midi clock start
251 - midi clock continue 252 - midi clock stop Clock events are at
a rate of 24 ppqn (pulses per quarter note). So there is 24*4=96 messages
for a beat.;
#X text 0 207 start message : let the '248' flow in stop message :
stop the flow;
#X connect 0 0 1 0;
#X connect 1 0 11 0;
#X connect 1 1 10 0;
#X connect 1 1 16 0;
#X connect 1 3 9 0;
#X connect 1 3 16 0;
#X connect 3 0 4 0;
#X connect 3 0 8 0;
#X connect 4 0 5 0;
#X connect 4 1 7 0;
#X connect 5 0 3 1;
#X connect 7 0 3 1;
#X connect 8 0 2 0;
#X connect 8 1 2 0;
#X connect 8 2 2 0;
#X connect 8 3 2 0;
#X connect 9 0 11 1;
#X connect 10 0 11 1;
#X connect 11 0 3 0;
#X connect 16 0 3 1;
#X connect 17 0 15 0;
